HIERARCHY
ROOT SimulationBone
{
	OFFSET 0.000000 0.000000 0.000000
	CHANNELS 6 Xposition Yposition Zposition Zrotation Yrotation Xrotation 
	JOINT Hips
	{
		OFFSET 0.000000 0.000000 0.000000
		CHANNELS 6 Xposition Yposition Zposition Zrotation Yrotation Xrotation 
		JOINT RightUpLeg
		{
			OFFSET 0.103455 1.857827 10.548507
			CHANNELS 3 Zrotation Yrotation Xrotation
			JOINT RightLeg
			{
				OFFSET 43.500000 -0.000031 0.000008
				CHANNELS 3 Zrotation Yrotation Xrotation
				JOINT RightFoot
				{
					OFFSET 42.372192 0.000011 -0.000014
					CHANNELS 3 Zrotation Yrotation Xrotation
					JOINT RightToe
					{
						OFFSET 17.299997 -0.000002 0.000013
						CHANNELS 3 Zrotation Yrotation Xrotation
						End Site
						{
							OFFSET 0.000000 0.000000 0.000000
						}
					}
				}
			}
		}
		JOINT LeftUpLeg
		{
			OFFSET 0.103457 1.857826 -10.548499
			CHANNELS 3 Zrotation Yrotation Xrotation
			JOINT LeftLeg
			{
				OFFSET 43.500046 -0.000019 0.000015
				CHANNELS 3 Zrotation Yrotation Xrotation
				JOINT LeftFoot
				{
					OFFSET 42.372261 -0.000004 0.000013
					CHANNELS 3 Zrotation Yrotation Xrotation
					JOINT LeftToe
					{
						OFFSET 17.299992 -0.000006 0.000004
						CHANNELS 3 Zrotation Yrotation Xrotation
						End Site
						{
							OFFSET 0.000000 0.000000 0.000000
						}
					}
				}
			}
		}
		JOINT Spine
		{
			OFFSET 6.901968 -2.603730 -0.000002
			CHANNELS 3 Zrotation Yrotation Xrotation
			JOINT Spine1
			{
				OFFSET 12.588100 -0.000001 0.000009
				CHANNELS 3 Zrotation Yrotation Xrotation
				JOINT Spine2
				{
					OFFSET 12.343201 0.000005 -0.000005
					CHANNELS 3 Zrotation Yrotation Xrotation
					JOINT Neck
					{
						OFFSET 25.832893 -0.000008 -0.000006
						CHANNELS 3 Zrotation Yrotation Xrotation
						JOINT Head
						{
							OFFSET 11.766606 0.000005 0.000008
							CHANNELS 3 Zrotation Yrotation Xrotation
							End Site
							{
								OFFSET 0.000000 0.000000 0.000000
							}
						}
					}
					JOINT RightShoulder
					{
						OFFSET 19.745903 -1.480373 6.000100
						CHANNELS 3 Zrotation Yrotation Xrotation
						JOINT RightArm
						{
							OFFSET 11.284123 -0.000007 -0.000024
							CHANNELS 3 Zrotation Yrotation Xrotation
							JOINT RightForeArm
							{
								OFFSET 33.000053 0.000004 0.000036
								CHANNELS 3 Zrotation Yrotation Xrotation
								JOINT RightHand
								{
									OFFSET 25.200006 0.000021 -0.000003
									CHANNELS 3 Zrotation Yrotation Xrotation
									End Site
									{
										OFFSET 0.000000 0.000000 0.000000
									}
								}
							}
						}
					}
					JOINT LeftShoulder
					{
						OFFSET 19.746101 -1.480381 -6.000079
						CHANNELS 3 Zrotation Yrotation Xrotation
						JOINT LeftArm
						{
							OFFSET 11.284133 -0.000015 -0.000008
							CHANNELS 3 Zrotation Yrotation Xrotation
							JOINT LeftForeArm
							{
								OFFSET 33.000099 0.000016 0.000006
								CHANNELS 3 Zrotation Yrotation Xrotation
								JOINT LeftHand
								{
									OFFSET 25.199781 0.000142 0.000425
									CHANNELS 3 Zrotation Yrotation Xrotation
									End Site
									{
										OFFSET 0.000000 0.000000 0.000000
									}
								}
							}
						}
					}
				}
			}
		}
	}
}
MOTION
Frames: 12
Frame Time: 0.016667
-171.523667 0.000000 523.917363 0.000000 35.754314 0.000000 -0.007663 89.545464 1.053357 95.623161 4.785183 -179.701255 157.210328 -4.687000 168.965670 -25.785822 -1.061649 -1.153309 65.958603 0.735770 -0.511064 21.454560 0.003114 0.000016 -173.035234 -5.121199 -176.441736 -15.726287 4.173296 4.772084 80.806109 -3.825814 -1.653781 21.454551 -0.003092 -0.000001 9.114712 1.767166 1.357415 8.262920 3.433046 2.838713 7.944603 3.449979 2.817922 6.082178 13.123263 19.539855 -22.424428 -26.423347 32.986524 -158.150857 -71.616518 -23.857129 -25.682757 59.298157 9.718467 -50.865920 -16.648706 1.918654 2.386341 -3.396498 17.222578 168.744972 81.160549 -9.822031 -39.829492 -39.403603 -1.267182 -36.090838 16.278074 -1.443260 9.182448 4.914582 -44.270990 
-170.167740 0.000000 522.966118 0.000000 35.947627 0.000000 0.034939 89.294752 1.185432 95.698347 5.122149 -179.525239 158.516960 -4.513483 169.709142 -18.020503 -2.177335 -0.748344 65.131430 0.629504 -0.135926 21.454559 0.003114 0.000017 -171.518753 -5.599891 -176.473062 -15.171775 4.190652 4.851118 81.495971 -3.836922 -1.521763 21.454552 -0.003088 0.000000 9.124553 1.827722 1.369651 8.284799 3.552842 2.867910 7.966449 3.569951 2.846395 6.149328 12.900192 19.475872 -22.842666 -26.295842 32.961007 -158.632294 -71.671049 -23.360977 -26.077626 59.756861 8.891794 -48.975799 -16.850512 1.871336 2.540439 -4.215529 15.868968 165.922657 81.290883 -12.674795 -40.488823 -38.856334 1.300281 -36.900562 16.584458 -1.482625 9.270233 5.420798 -42.644443 
-168.800307 0.000000 521.993409 0.000000 36.113458 0.000000 0.083648 89.011971 1.334161 95.782296 5.468536 -179.319787 159.350868 -4.435698 170.879940 -11.615263 -3.480351 -1.026206 65.304524 0.993059 0.234776 21.454558 0.003112 0.000018 -169.948234 -6.105299 -176.346837 -14.575139 4.149563 4.819605 82.174920 -3.771187 -1.382004 21.454553 -0.003086 0.000001 9.127544 1.890801 1.359316 8.292383 3.679471 2.851992 7.973985 3.696486 2.829713 6.359647 12.581961 19.454563 -23.239263 -26.103949 32.920384 -159.224659 -71.701410 -22.751226 -26.406540 60.207180 8.114409 -46.816475 -16.923441 1.807200 2.763487 -5.020303 14.252071 162.571095 81.410540 -16.061977 -41.094703 -38.505918 3.840199 -37.684690 16.862451 -1.519870 9.264699 5.842922 -40.732529 
-167.420054 0.000000 521.001908 0.000000 36.265594 0.000000 0.138559 88.681415 1.484202 95.881801 5.756172 -179.092926 159.204888 -4.375303 171.985391 -7.813266 -4.584361 -2.027236 67.017529 1.529376 -0.317957 21.454557 0.003109 0.000019 -168.390821 -6.548353 -176.019995 -14.095864 4.074546 4.659408 82.929722 -3.615029 -1.235029 21.454553 -0.003089 0.000001 9.121630 1.932085 1.333087 8.280986 3.763948 2.802428 7.962547 3.780666 2.779636 6.583905 12.382216 19.435175 -23.353550 -25.975614 32.837289 -159.985217 -71.780908 -21.967854 -26.664316 60.580810 7.486321 -44.404635 -16.792921 1.725223 3.151019 -5.974105 12.458455 159.306590 81.472349 -19.361937 -41.691234 -38.306081 6.211338 -38.364229 17.116812 -1.553228 9.144132 6.155116 -38.421955 
-166.026115 0.000000 519.995266 0.000000 36.417252 0.000000 0.200129 88.307457 1.607434 96.038599 5.927931 -178.738391 158.557528 -4.107604 172.469257 -6.114496 -5.324402 -3.359799 69.308244 2.104604 -1.514411 21.454558 0.003108 0.000018 -166.851782 -6.865603 -175.664460 -13.813809 4.084238 4.544463 83.757680 -3.484186 -1.046793 21.454553 -0.003094 0.000000 9.117702 1.940045 1.274355 8.271495 3.784161 2.685493 7.953017 3.800172 2.662577 6.764081 12.361443 19.414370 -23.237903 -25.904526 32.733653 -160.874901 -71.885845 -21.051506 -26.939870 60.799644 7.080427 -41.765035 -16.481356 1.630109 3.818866 -6.970156 10.280168 156.999026 81.446105 -21.697037 -42.301317 -38.198433 8.290632 -38.971747 17.300905 -1.580959 9.063478 6.610936 -36.208116 
-164.618993 0.000000 518.975981 0.000000 36.579249 0.000000 0.270727 87.901761 1.684357 96.291814 5.944361 -178.158560 158.009115 -3.463541 171.909216 -5.738530 -5.610759 -4.614138 71.019821 2.632708 -2.733653 21.454561 0.003109 0.000016 -165.326161 -7.022283 -175.406422 -13.783411 4.250108 4.617211 84.614651 -3.473404 -0.786820 21.454552 -0.003094 -0.000000 9.126419 1.909247 1.168651 8.284692 3.730047 2.472212 7.966175 3.744765 2.449624 6.887042 12.506401 19.395823 -23.032033 -25.844354 32.634194 -161.855390 -71.979110 -20.042108 -27.300912 60.809461 6.938089 -38.940912 -16.029247 1.525758 4.818482 -7.801486 7.608149 156.270082 81.329226 -22.439870 -42.916379 -38.157037 9.989985 -39.567411 17.390812 -1.602749 9.178085 7.395732 -34.524847 
-163.200379 0.000000 517.944534 0.000000 36.759543 0.000000 0.358179 87.485069 1.737510 96.634497 5.829826 -177.410521 157.667103 -2.504694 170.495756 -6.417028 -5.347608 -5.558312 71.677432 3.205455 -3.087098 21.454562 0.003110 0.000016 -163.840092 -7.113202 -174.980881 -14.035841 4.368955 4.699081 85.381646 -3.460634 -0.459966 21.454553 -0.003092 0.000000 9.144468 1.845782 1.033328 8.314921 3.612655 2.197613 7.996380 3.625712 2.175739 7.048576 12.662341 19.375186 -22.914460 -25.722601 32.530605 -163.017285 -72.062713 -18.846492 -27.636273 60.663471 7.001911 -36.046240 -15.453368 1.415970 5.910137 -8.193136 5.041016 156.548028 81.163657 -22.166959 -43.447095 -38.294472 11.362541 -40.211368 17.505049 -1.626765 9.420855 8.194638 -32.962082 
-161.772463 0.000000 516.900941 0.000000 36.964257 0.000000 0.468294 87.079559 1.792483 97.033781 5.628621 -176.621645 157.482319 -1.377360 168.603295 -8.001117 -4.514869 -6.068593 71.210052 3.911403 -1.943835 21.454557 0.003108 0.000019 -162.429948 -7.244774 -174.191890 -14.565712 4.245589 4.616988 85.927492 -3.324347 -0.062454 21.454553 -0.003089 0.000000 9.163012 1.757173 0.897760 8.345874 3.445117 1.920683 8.027340 3.456508 1.899829 7.319217 12.685524 19.341133 -22.991567 -25.492428 32.400215 -164.385769 -72.142104 -17.438762 -27.819084 60.453323 7.195169 -33.209130 -14.788314 1.306568 6.835034 -7.944025 3.270313 157.086396 80.994218 -21.630926 -43.799851 -38.735174 12.459536 -40.947909 17.757848 -1.662859 9.652399 8.680609 -31.106120 
-160.337207 0.000000 515.845659 0.000000 37.197467 0.000000 0.593754 86.704063 1.843717 97.400144 5.400913 -176.047762 157.285118 -0.390701 166.717719 -10.335744 -3.456514 -6.198778 70.439822 4.614563 0.021598 21.454553 0.003104 0.000021 -161.135460 -7.377899 -173.491477 -15.240165 3.994667 4.536013 86.142502 -3.167159 0.463584 21.454553 -0.003088 0.000000 9.165141 1.645200 0.807625 8.345187 3.227954 1.732375 8.026697 3.238219 1.712837 7.559507 12.617480 19.263353 -23.042278 -25.234143 32.197524 -165.575382 -72.211857 -16.215263 -27.822286 60.318123 7.478670 -30.545168 -14.163977 1.212925 7.672246 -7.054727 2.582232 157.579004 80.863470 -21.139019 -43.916982 -39.507172 13.161243 -41.753987 18.104700 -1.707889 9.694899 8.967407 -29.350562 
-158.895731 0.000000 514.779027 0.000000 37.463598 0.000000 0.729114 86.378287 1.877386 97.653549 5.196189 -175.934394 156.969830 0.178761 165.226747 -13.190371 -2.538978 -6.069223 70.111643 5.179234 2.080488 21.454555 0.003099 0.000020 -159.984740 -7.403948 -173.314507 -15.937682 3.777058 4.599414 85.938781 -3.083115 1.136484 21.454552 -0.003089 0.000000 9.135991 1.508221 0.802719 8.283981 2.955190 1.711808 7.965575 2.965340 1.693916 7.622916 12.529474 19.127343 -22.842228 -25.033378 31.900058 -166.172292 -72.254535 -15.601408 -27.598861 60.367895 7.820914 -28.184051 -13.700073 1.139598 8.546735 -5.624755 3.121181 157.910752 80.786496 -20.806797 -43.746074 -40.591717 13.352102 -42.606389 18.459523 -1.754623 9.442913 9.226742 -28.215923 
-157.449434 0.000000 513.701276 0.000000 37.767466 0.000000 0.892287 86.128761 1.879610 97.798619 4.990213 -176.359524 156.691124 0.378798 164.029192 -16.044483 -1.890123 -5.959475 69.879705 5.889276 4.515757 21.454560 0.003099 0.000017 -158.969593 -7.171909 -173.389065 -16.702432 3.609796 4.538223 85.301391 -2.915353 1.770684 21.454550 -0.003089 0.000000 9.077517 1.336802 0.882811 8.165467 2.608084 1.858123 7.847186 2.619126 1.842324 7.543771 12.426909 18.997679 -22.477755 -24.874978 31.591205 -166.087100 -72.176934 -15.689387 -26.933438 60.549324 8.173711 -26.337144 -13.375838 1.085652 9.317354 -3.982007 4.878948 158.241956 80.666781 -20.477049 -43.267287 -41.882323 13.143908 -43.551102 18.727909 -1.799726 9.095841 9.381162 -27.929360 
-156.001313 0.000000 512.612447 0.000000 38.112100 0.000000 1.100769 85.967908 1.840784 97.869407 4.744607 -177.297719 156.587714 0.354966 163.001096 -18.499785 -1.550134 -6.120029 69.336129 7.032527 7.545340 21.454559 0.003105 0.000017 -158.099970 -6.575533 -173.285668 -17.657235 3.455724 4.051244 84.238627 -2.479701 2.207098 21.454546 -0.003088 -0.000000 8.998046 1.125553 1.027503 8.004973 2.177474 2.130679 7.686857 2.190167 2.117481 7.393005 12.281879 18.938616 -22.110273 -24.729897 31.361536 -165.357536 -71.887301 -16.441268 -25.617265 60.770410 8.563910 -25.175969 -13.148445 1.052076 9.815884 -2.436704 7.725435 158.709438 80.418173 -20.015630 -42.498629 -43.278333 12.697816 -44.616008 18.853415 -1.839956 8.831585 9.280219 -28.596715 
